HIERARCHY
ROOT hips
{
  OFFSET 0 10.6860622 2.3727825e-15
  CHANNELS 6 Xposition Yposition Zposition Yrotation Xrotation Zrotation
  JOINT leftUpperLeg
  {
    OFFSET 0.6642549969 -0.9402397400000004 0
    CHANNELS 3 Yrotation Xrotation Zrotation
    JOINT leftLowerLeg
    {
      OFFSET 0 -3.997221335632195 0
      CHANNELS 3 Yrotation Xrotation Zrotation
      JOINT leftFoot
      {
        OFFSET -0.13777839790000004 -4.6145792000000005 -0.22186036399999998
        CHANNELS 3 Yrotation Xrotation Zrotation
        JOINT leftToes
        {
          OFFSET -0.03777410834999995 -0.9130806927000008 0.85230013
          CHANNELS 3 Yrotation Xrotation Zrotation
          End Site
          {
            OFFSET -0.03777410834999995 -0.9130806927000008 0.85230013
          }
        }
      }
    }
  }
  JOINT rightUpperLeg
  {
    OFFSET -0.6642778626 -0.9402397400000004 0
    CHANNELS 3 Yrotation Xrotation Zrotation
    JOINT rightLowerLeg
    {
      OFFSET 0 -3.997221452859387 0
      CHANNELS 3 Yrotation Xrotation Zrotation
      JOINT rightFoot
      {
        OFFSET 0.1377926176 -4.6145792000000005 -0.22185782299999995
        CHANNELS 3 Yrotation Xrotation Zrotation
        JOINT rightToes
        {
          OFFSET 0.037780746850000047 -0.9130806927000008 0.85230167
          CHANNELS 3 Yrotation Xrotation Zrotation
          End Site
          {
            OFFSET 0.037780746850000047 -0.9130806927000008 0.85230167
          }
        }
      }
    }
  }
  JOINT spine
  {
    OFFSET 0 0.13988381660000015 0
    CHANNELS 3 Yrotation Xrotation Zrotation
    JOINT chest
    {
      OFFSET 0 0.6191039003973773 0
      CHANNELS 3 Yrotation Xrotation Zrotation
      JOINT upperChest
      {
        OFFSET 0 0.9855186130586943 0
        CHANNELS 3 Yrotation Xrotation Zrotation
        JOINT leftShoulder
        {
          OFFSET 0.1807663869 1.5087829790000005 0
          CHANNELS 3 Yrotation Xrotation Zrotation
          JOINT leftUpperArm
          {
            OFFSET 0.5985063006419806 0 0
            CHANNELS 3 Yrotation Xrotation Zrotation
            JOINT leftLowerArm
            {
              OFFSET 2.2993332369501065 0 0
              CHANNELS 3 Yrotation Xrotation Zrotation
              JOINT leftHand
              {
                OFFSET 2.395047042602395 0 0
                CHANNELS 3 Yrotation Xrotation Zrotation
                JOINT leftIndexProximal
                {
                  OFFSET 0.5766295810000004 0.04556643899499946 0.17265095988184
                  CHANNELS 3 Yrotation Xrotation Zrotation
                  JOINT leftIndexIntermediate
                  {
                    OFFSET 0.2957229000000008 -0.019352197700001517 -0.007932640616999987
                    CHANNELS 3 Yrotation Xrotation Zrotation
                    JOINT leftIndexDistal
                    {
                      OFFSET 0.19008243099999922 -0.012484908149998475 -0.002786250786000012
                      CHANNELS 3 Yrotation Xrotation Zrotation
                      End Site
                      {
                        OFFSET 0.19008243099999922 -0.012484908149998475 -0.002786250786000012
                      }
                    }
                  }
                }
                JOINT leftMiddleProximal
                {
                  OFFSET 0.5834975091000001 0.0524350405149987 0.02204081888183999
                  CHANNELS 3 Yrotation Xrotation Zrotation
                  JOINT leftMiddleIntermediate
                  {
                    OFFSET 0.33880573540000003 -0.019871473270000717 -0.00000971183179999946
                    CHANNELS 3 Yrotation Xrotation Zrotation
                    JOINT leftMiddleDistal
                    {
                      OFFSET 0.20676022730000088 -0.012221336379999448 0.0001471936708000235
                      CHANNELS 3 Yrotation Xrotation Zrotation
                      End Site
                      {
                        OFFSET 0.20676022730000088 -0.012221336379999448 0.0001471936708000235
                      }
                    }
                  }
                }
                JOINT leftLittleProximal
                {
                  OFFSET 0.5344154683999995 -0.012880921405001189 -0.24414037221816004
                  CHANNELS 3 Yrotation Xrotation Zrotation
                  JOINT leftLittleIntermediate
                  {
                    OFFSET 0.21758961730000093 -0.011650919939999227 0.011893592810000034
                    CHANNELS 3 Yrotation Xrotation Zrotation
                    JOINT leftLittleDistal
                    {
                      OFFSET 0.1475273964999999 -0.008152365682999818 0.006001092492999946
                      CHANNELS 3 Yrotation Xrotation Zrotation
                      End Site
                      {
                        OFFSET 0.1475273964999999 -0.008152365682999818 0.006001092492999946
                      }
                    }
                  }
                }
                JOINT leftRingProximal
                {
                  OFFSET 0.5799399463000003 0.026911854694997794 -0.12150566991816003
                  CHANNELS 3 Yrotation Xrotation Zrotation
                  JOINT leftRingIntermediate
                  {
                    OFFSET 0.26167887460000006 -0.013480186499999602 0.010996293000000053
                    CHANNELS 3 Yrotation Xrotation Zrotation
                    JOINT leftRingDistal
                    {
                      OFFSET 0.17667108799999987 -0.008990287899999228 0.0055541023999999065
                      CHANNELS 3 Yrotation Xrotation Zrotation
                      End Site
                      {
                        OFFSET 0.17667108799999987 -0.008990287899999228 0.0055541023999999065
                      }
                    }
                  }
                }
                JOINT leftThumbProximal
                {
                  OFFSET 0.11018806699999972 -0.09448718900500053 0.17047963138184
                  CHANNELS 3 Yrotation Xrotation Zrotation
                  JOINT leftThumbIntermediate
                  {
                    OFFSET 0.31062601459999983 -0.08126270900000132 0.15443142000000007
                    CHANNELS 3 Yrotation Xrotation Zrotation
                    JOINT leftThumbDistal
                    {
                      OFFSET 0.21627175790000086 -0.08833193599999878 0.018771167799999988
                      CHANNELS 3 Yrotation Xrotation Zrotation
                      End Site
                      {
                        OFFSET 0.21627175790000086 -0.08833193599999878 0.018771167799999988
                      }
                    }
                  }
                }
              }
            }
          }
        }
        JOINT neck
        {
          OFFSET 0 1.5463305265074576 0
          CHANNELS 3 Yrotation Xrotation Zrotation
          JOINT head
          {
            OFFSET 0 0.8456443600000344 0
            CHANNELS 3 Yrotation Xrotation Zrotation
            JOINT leftEye
            {
              OFFSET 0.30408573140000006 0.5104519199999995 0.1276382305
              CHANNELS 3 Yrotation Xrotation Zrotation
              End Site
              {
                OFFSET 0.30408573140000006 0.5104519199999995 0.1276382305
              }
            }
            JOINT rightEye
            {
              OFFSET -0.30409491089999996 0.5104519199999995 0.1276379445
              CHANNELS 3 Yrotation Xrotation Zrotation
              End Site
              {
                OFFSET -0.30409491089999996 0.5104519199999995 0.1276379445
              }
            }
            JOINT jaw
            {
              OFFSET -3.155239131000001e-7 -0.11984121820000082 0.60178107
              CHANNELS 3 Yrotation Xrotation Zrotation
              End Site
              {
                OFFSET -3.155239131000001e-7 -0.11984121820000082 0.60178107
              }
            }
          }
        }
        JOINT rightShoulder
        {
          OFFSET -0.1807303465 1.5087829790000005 0
          CHANNELS 3 Yrotation Xrotation Zrotation
          JOINT rightUpperArm
          {
            OFFSET -0.5985063796536958 0 0
            CHANNELS 3 Yrotation Xrotation Zrotation
            JOINT rightLowerArm
            {
              OFFSET -2.2993322059002854 0 0
              CHANNELS 3 Yrotation Xrotation Zrotation
              JOINT rightHand
              {
                OFFSET -2.395045314457259 0 0
                CHANNELS 3 Yrotation Xrotation Zrotation
                JOINT rightIndexProximal
                {
                  OFFSET -0.5764487688300002 0.0441371204405987 0.17361932004999997
                  CHANNELS 3 Yrotation Xrotation Zrotation
                  JOINT rightIndexIntermediate
                  {
                    OFFSET -0.29573011380000047 -0.01934826376999843 -0.007698921482999974
                    CHANNELS 3 Yrotation Xrotation Zrotation
                    JOINT rightIndexDistal
                    {
                      OFFSET -0.19008373999999884 -0.012503266380000655 -0.0026365778999999897
                      CHANNELS 3 Yrotation Xrotation Zrotation
                      End Site
                      {
                        OFFSET -0.19008373999999884 -0.012503266380000655 -0.0026365778999999897
                      }
                    }
                  }
                }
                JOINT rightMiddleProximal
                {
                  OFFSET -0.5834852037300005 0.05211639405060153 0.02307162440000001
                  CHANNELS 3 Yrotation Xrotation Zrotation
                  JOINT rightMiddleIntermediate
                  {
                    OFFSET -0.33880114510000003 -0.019952774050000954 0.0002455003561999819
                    CHANNELS 3 Yrotation Xrotation Zrotation
                    JOINT rightMiddleDistal
                    {
                      OFFSET -0.20675694929999955 -0.012273788999999091 0.00030209124000002766
                      CHANNELS 3 Yrotation Xrotation Zrotation
                      End Site
                      {
                        OFFSET -0.20675694929999955 -0.012273788999999091 0.00030209124000002766
                      }
                    }
                  }
                }
                JOINT rightLittleProximal
                {
                  OFFSET -0.5346811737299992 -0.011214256288399227 -0.24363941305000003
                  CHANNELS 3 Yrotation Xrotation Zrotation
                  JOINT rightLittleIntermediate
                  {
                    OFFSET -0.21757715980000092 -0.011771559690000988 0.01201554387
                    CHANNELS 3 Yrotation Xrotation Zrotation
                    JOINT rightLittleDistal
                    {
                      OFFSET -0.1475201849000004 -0.00822055339600003 0.006082065407000015
                      CHANNELS 3 Yrotation Xrotation Zrotation
                      End Site
                      {
                        OFFSET -0.1475201849000004 -0.00822055339600003 0.006082065407000015
                      }
                    }
                  }
                }
                JOINT rightRingProximal
                {
                  OFFSET -0.5800810755299999 0.027657985680600072 -0.12066365025000003
                  CHANNELS 3 Yrotation Xrotation Zrotation
                  JOINT rightRingIntermediate
                  {
                    OFFSET -0.26166445029999974 -0.013623118409999302 0.011164098990000045
                    CHANNELS 3 Yrotation Xrotation Zrotation
                    JOINT rightRingDistal
                    {
                      OFFSET -0.17666387530000027 -0.009072900100000503 0.005668185599999959
                      CHANNELS 3 Yrotation Xrotation Zrotation
                      End Site
                      {
                        OFFSET -0.17666387530000027 -0.009072900100000503 0.005668185599999959
                      }
                    }
                  }
                }
                JOINT rightThumbProximal
                {
                  OFFSET -0.10997596379000074 -0.09577489355940072 0.16989765924999997
                  CHANNELS 3 Yrotation Xrotation Zrotation
                  JOINT rightThumbIntermediate
                  {
                    OFFSET -0.31036620999999986 -0.08229339117999834 0.15440884469999996
                    CHANNELS 3 Yrotation Xrotation Zrotation
                    JOINT rightThumbDistal
                    {
                      OFFSET -0.21631306399999906 -0.08825326400000111 0.018656797720000014
                      CHANNELS 3 Yrotation Xrotation Zrotation
                      End Site
                      {
                        OFFSET -0.21631306399999906 -0.08825326400000111 0.018656797720000014
                      }
                    }
                  }
                }
              }
            }
          }
        }
      }
    }
  }
}
MOTION
Frames: 4
Frame Time: 0.03333333333333333
0.014927289448678493 -0.08925853483886748 0.008985348045825958 -5.277604106076706 -3.7411588972609082 -3.361319875412934 15.134924788729107 -10.396686932517817 7.360385728943956 2.133534857420698 12.125847486470493 4.5860368606714985 0.4145309562255789 1.2823003571312022 -7.118060524303555 -0.000011638660112769247 -4.935643779504813 5.995710598081492e-7 -10.35112273089483 0.6502227795067973 3.5238426543665606 -9.882297264382384 7.2243235679807105 -4.4052821698961795 -1.6218948223738336 -3.6362193154092126 3.335613837561804 -0.000003069298263643248 -7.281127119236232 3.990536039941018e-8 1.5821043584650156 3.293220741800827 2.8180175600111754 0.7667902791997219 2.2466156942864286 3.1291587151867044 0 0 0 -17.601214856871824 1.0165989309985621 -12.413574920517044 -20.707499842778546 3.2222680513070348 -70.89202767142885 -1.4592385603377644 0.00023099441619075758 0.0188569604599654 -1.7268680405077272 -33.22265226616587 -5.222276706816599 -1.067289898650618 0.013499131138874387 -7.580732373097043 1.5317881777676605 0.23423750776180738 -17.389689262304717 0.7174150446015746 0.05044533246281532 -8.047221602502452 2.4653773823759635 -0.10317056342436967 -15.733173837721145 1.5343313342075753 0.23503485899209345 -17.41949648611735 1.620120385670211 0.26278895452975937 -18.427204976190225 5.218703361630321 0.845502717810368 -27.11290141739759 1.5343649245339388 0.23505476275770085 -17.41986156903631 1.4573401056919628 0.2115466203996605 -16.519856732001344 3.3747165933058105 0.08814704777547212 -21.170625783805207 1.830548609875943 0.3380335992544801 -20.92480628949503 1.573504933123042 0.24750243934701568 -17.878948644024486 2.2227060209514073 -0.6556246893100062 4.775716531808251 26.125549831950334 10.713640313481754 21.92863981657857 3.7654753870160804 -13.796408375836013 8.09484344858408 -0.07347387746771387 5.629551253633887 0.44563057931129774 1.3867341745135344 -7.560653109851546 -0.2813174719627518 0 0 0 0 0 0 0 0 0 15.53601761343733 1.170474558852729 14.835041580704335 28.796994410570075 11.307941196033635 64.7335654761802 6.69317543884377 0.005044665836450808 -0.08624928013934743 -0.4613513093620902 -20.18299094199046 6.9562452689734 1.3502266885167555 0.03435523659895161 6.807845473496294 -1.1745330159133136 0.17995179477662818 17.419191681673208 -0.5501093946851443 0.0387461553355108 8.06054259257884 -2.013402435868685 -0.1609215094639926 15.030880248803687 -1.1764809141320474 0.1805529878008162 17.448988837848592 -1.2422486587403245 0.20186347022408457 18.45855662821876 -4.556034375380495 0.6697889945393363 26.47499216922872 -1.176507802465823 0.18054642438332336 17.449398740160756 -1.117451261852677 0.16250800064074056 16.54779793244405 -2.816943838474759 -0.01520042776113939 20.487474335723892 -1.4035711537590183 0.25965920125738845 20.96072409312609 -1.2065112718250486 0.19011917135935194 17.909320438320965 -0.23000747565387775 -1.677161934211786 -4.206246422794872 -30.6568179468786 11.052938896159583 -22.21218311034103 -3.864227861484279 -15.525835660904491 -11.614838656816124
0.014503720216453075 -0.08929572813720732 0.008192532695829868 -5.287734028523024 -3.7411494856948355 -3.3606945839390563 15.134656864406248 -10.392604637808692 7.361306845642923 2.1418492722697686 12.113940889429074 4.587504991582576 0.41460359489914644 1.2865257840748627 -7.118226601899765 -0.00001428057482183793 -4.935638637797326 0.000002778728764968022 -10.351452727956605 0.6427227543917746 3.5264382132900423 -9.865979030180636 7.236292169249539 -4.3948133400585405 -1.6208378085291024 -3.6414673702867657 3.321684764951632 -0.000004677322581412929 -7.281123676379299 9.201792248203551e-7 1.5821016870278517 3.2932320730138356 2.817522469540495 0.7667895316400721 2.246618471185235 3.129158288608474 0 0 0 -17.601214856871824 1.0165989309985621 -12.413574920517044 -20.70514923934164 3.229065253676372 -70.89198418561627 -1.459239840582913 0.00022343567420402013 0.018846483390515374 -1.7268658817237645 -33.222644101433225 -5.222260346762018 -1.0672885115091155 0.013481572082733321 -7.580721371045265 1.5317863641317861 0.23423697414881925 -17.389704948622658 0.7174168053723994 0.050458542614080476 -8.047212303466548 2.465380367822629 -0.10317322480122232 -15.733173837721145 1.5343325077352803 0.23504027516423312 -17.41948894674594 1.620110144374326 0.26277905598743795 -18.427201736166936 5.218704637121039 0.8454963138107608 -27.112890703878055 1.5343591635795697 0.23505014700508425 -17.419857288151416 1.4573411725710808 0.2115440857418719 -16.519860006147304 3.374727460055702 0.08813247357528174 -21.170765299267828 1.8304591120778928 0.3379922438738385 -20.92371505167701 1.5734336821470198 0.24748600405099375 -17.877929128012713 2.222700261938261 -0.6556292786438125 4.775706321425182 26.1255638447292 10.713624672919105 21.928677564819857 3.765470562198378 -13.79641540893562 8.094822559511341 -0.07713669586308458 5.629551253633887 0.44531782656012087 1.3685631812060208 -7.576286147689294 -0.2869683979880357 0 0 0 0 0 0 0 0 0 15.529527021348867 1.172207654626582 14.834966706766693 28.80470861163716 11.304966983465073 64.73145356075824 6.689083024778131 0.005035585736909325 -0.08620833240123238 -0.46134855213870607 -20.182983664958876 6.956242570975167 1.3502176196891078 0.03435856164769514 6.807828094537294 -1.1745331226131244 0.17994057560197663 17.41918679393097 -0.5501083275170394 0.03875118459704587 8.060543437917781 -2.0134109683679786 -0.160915679767822 15.03086287180992 -1.1764823012286438 0.1805462909805288 17.448988837848592 -1.2422502591995748 0.20187240822241903 18.458561487345836 -4.556034375380495 0.6697893680908303 26.474990640649118 -1.1765039612753154 0.18054666450835352 17.44941279604941 -1.1174563835408584 0.16251286983815277 16.547799569275554 -2.8169508735961952 -0.015188303174420286 20.487437563699682 -1.4035710470682372 0.25963548211472703 20.960714898597697 -1.206514899578576 0.19012810935141924 17.909315563872866 -0.23001756509582852 -1.6771394062811578 -4.206260052217692 -30.656830475323055 11.052935416519308 -22.21219247931831 -3.864232281950782 -15.525830344257448 -11.614848204410547
0.013641822151839733 -0.08938251250000029 0.006372672040015459 -5.31708961848401 -3.741118256408136 -3.362460541155406 15.134286598381674 -10.386222198877144 7.374772333013553 2.1706367389517625 12.090294311514603 4.592859395622939 0.4147326169444602 1.2952634934786385 -7.118590535834003 -0.000004301693941009877 -4.9356472073098265 0.00000220475518778328 -10.357094528163248 0.6264073666344844 3.5285016695046583 -9.823149289505496 7.2599876146549756 -4.363902585138297 -1.6181235884676488 -3.6485466679445517 3.2897359079789257 -0.000003053125416053999 -7.281139169235707 3.969532046383587e-8 1.5820933521438554 3.2932660666536355 2.8163173464918754 0.766790546185311 2.2466176167548326 3.129158501897589 0 0 0 -17.601096774970777 1.017926865033961 -12.409400695175629 -20.702540785815014 3.233151934492891 -70.89803224986267 -1.459243041195778 0.0002345442677734255 0.018850096920596405 -1.718333865207583 -33.22304825661403 -5.238145594543616 -1.0587852647221427 0.034380819797461847 -7.501474464882077 1.5321675015405287 0.23434911291872834 -17.394116706698505 0.7178070989653016 0.05051082626504944 -8.051641484934692 2.4479476771087367 -0.10898658619479326 -15.77135196629022 1.5336842632234562 0.23484614674934562 -17.41189025134296 1.61947332456649 0.2625645164238492 -18.419640402507394 5.1910986079421875 0.822901200546874 -26.973922829411503 1.5022965171960363 0.22510355045842595 -17.044669770237935 1.4251350873602124 0.20211256023323912 -16.14467562950256 3.3544494330088557 0.08172158027120055 -21.087757890767275 1.8251875045957573 0.3359877621252872 -20.86073343281581 1.568171284881632 0.2457839638377352 -17.816242010002984 2.222708153919228 -0.6556186591388485 4.775709299453609 26.1255560730999 10.713617721558185 21.928668206286748 3.7654720857366257 -13.7963995844618 8.094833379253759 -0.09616770424588865 5.6295495378110765 0.4405226503030197 1.2845620732446188 -7.618220220927969 -0.32703711820152703 0 0 0 0 0 0 0 0 0 15.520598925952159 1.1734748134681616 14.83898213970431 28.827678307043655 11.306450603206319 64.7163626681297 6.6796786295110735 0.005026279687505641 -0.0860991628895252 -0.4601584483185485 -20.176219811001868 6.956143395605338 1.3493087603862606 0.03352676919181468 6.82105660571058 -1.1745324824142598 0.17993293162210505 17.419185164683494 -0.550114837242473 0.03875198167496823 8.06053582986718 -2.0084582524383667 -0.16248904412151133 15.042015885414202 -1.1764730183513958 0.18053944741716996 17.449001264761968 -1.2422503658968582 0.2018741958220865 18.458561487345836 -4.559743894725659 0.6716702535894764 26.47862578050146 -1.1762230940328373 0.180481630646128 17.445115547243752 -1.1171592991307953 0.16240762847297593 16.54349743109808 -2.816193026240963 -0.015294432911994994 20.476692242295268 -1.403565072384472 0.2596627231098459 20.960722498557825 -1.2065071105783436 0.19011699689262584 17.909312888870826 -0.22573427518405567 -1.6774511672399075 -4.205595166154979 -30.65682271444355 11.052935416519308 -22.212198626879022 -3.864230955810836 -15.525830344257448 -11.614852544225977
0.012651191093027592 -0.0895513128540042 0.004258557688444853 -5.368194285001099 -3.741069059588881 -3.3675914308773445 15.13389924754951 -10.381914364963935 7.394803359878337 2.21535461516045 12.070415375019458 4.599324182411325 0.4148698287709913 1.3041517496013908 -7.122483045995019 -2.7635602665305473e-7 -4.9356472073098265 0.000003855871302621157 -10.37244816522641 0.6016405854452661 3.523323325750979 -9.750953611425036 7.295924762705955 -4.319515536475333 -1.6198176234339112 -3.6559464115645257 3.254620020075747 0.000004677815453362302 -7.27897878164717 -9.201819364284988e-7 1.5820705790840017 3.2933346953262013 2.813938108550072 0.766835346366693 2.2466141990332273 3.132555607398623 0 0 0 -17.600729662990716 1.0215074117058929 -12.398095489522964 -20.715503688262913 3.2389846117276737 -70.90434690465547 -1.4608145188844992 0.00023183693403210944 0.01887857994196358 -1.6460916428895505 -33.247782842460595 -5.33795331477558 -1.0292137800233185 0.09493863237079934 -7.3022775731018434 1.533320942103369 0.23471359727794774 -17.407623752233434 0.7190022892599632 0.05068398230019779 -8.065122805935822 2.395260743115409 -0.127178213439334 -15.906783300597612 1.5319944901188702 0.23431885706209055 -17.392116289739143 1.6178050953129324 0.2620056623559467 -18.399997027744067 5.101748828806264 0.7512720598523707 -26.500486099087038 1.393483605292814 0.19305327427969546 -15.77677977076171 1.3158205595494916 0.17177504598029678 -14.876721140004301 3.3001618294427684 0.06326131832755509 -20.954546543372125 1.8166400166461512 0.33274131259568157 -20.7584584738442 1.5596418887419827 0.24304161793435602 -17.71611246606856 2.223582075648974 -0.6556309863029043 4.76710094416835 26.139626853605826 10.71569357880386 21.932461907103836 3.7654780187348047 -13.796404859286287 8.094834744804036 -0.1378229982691629 5.629544819298374 0.4117727955645828 1.104594752200993 -7.6546528365081565 -0.45275412514089863 0 0 0 0 0 0 0 0 0 15.527453382567906 1.1687407169425668 14.849907525558756 28.8465853803487 11.321663372913768 64.68887027700515 6.691760201437947 0.005037014807256325 -0.08624408413218639 -0.45845738539775754 -20.15560078075783 6.961547021052594 1.347748356922084 0.030534025289450338 6.8654777981847905 -1.1745210655344565 0.1799370004072021 17.419195962517243 -0.5501174518043235 0.03875807481875156 8.060540901900945 -1.9940597744836233 -0.16695203089988112 15.067269538724398 -1.1762588018531972 0.1804791093333202 17.44553359461557 -1.2420237735199857 0.20177602458392233 18.45513209167593 -4.569782462747752 0.676818011332759 26.490261307326698 -1.1775598192533043 0.180881572227151 17.465544246221757 -1.1185073694368397 0.16281804178570666 16.56396006976646 -2.8172591262715394 -0.014354421425890848 20.443855898919722 -1.4035694467065174 0.25965271784718524 20.960739665926837 -1.2065020957425538 0.1901172903789324 17.90930046497267 -0.21308354399983082 -1.6783587976290648 -4.203666173694328 -30.656827482008698 11.052945855440253 -22.21219540546233 -3.864230310585355 -15.525840977551674 -11.614863519034511
